<svg width="1440" height="499" viewBox="0 0 1440 499" fill="none" xmlns="http://www.w3.org/2000/svg">
<g clip-path="url(#clip0_1_5131)">
<rect width="1440" height="499" fill="#E9E9E9"/>
<path d="M757.55 300.526C866.193 294.583 969.754 323.056 1073.21 342.329C1108.75 348.955 1146.47 354.599 1183.46 351.102C1242.61 345.51 1286.94 317.755 1314.76 288.418C1342.58 259.082 1359.09 226.599 1390.8 198.493C1403.71 187.044 1420.4 176.117 1440 168.08V531.08H514.075C492.535 482.658 491.667 431.031 531.291 386.842C573.75 339.516 662.28 305.733 757.55 300.526Z" fill="url(#paint0_linear_1_5131)" fill-opacity="0.6"/>
<path d="M684.33 169.989C575.387 175.948 471.541 147.397 367.804 128.071C332.158 121.426 294.337 115.767 257.245 119.274C197.934 124.881 153.477 152.712 125.585 182.13C97.6926 211.547 81.1282 244.12 49.3358 272.302C36.3919 283.783 19.6566 294.741 0 302.8L0 -61.2L928.476 -61.2C950.075 -12.6455 950.945 39.1242 911.213 83.4346C868.636 130.892 779.863 164.767 684.33 169.989Z" fill="url(#paint1_linear_1_5131)" fill-opacity="0.6"/>
</g>
<defs>
<linearGradient id="paint0_linear_1_5131" x1="532.127" y1="200.876" x2="1105.7" y2="462.505" gradientUnits="userSpaceOnUse">
<stop stop-color="white"/>
<stop offset="0.898175" stop-color="#E3E3E3"/>
</linearGradient>
<linearGradient id="paint1_linear_1_5131" x1="910.374" y1="269.913" x2="335.224" y2="7.56395" gradientUnits="userSpaceOnUse">
<stop stop-color="white"/>
<stop offset="0.898175" stop-color="#E3E3E3"/>
</linearGradient>
<clipPath id="clip0_1_5131">
<rect width="1440" height="499" fill="white"/>
</clipPath>
</defs>
</svg>
